<?xml version="1.0" standalone="no"?>
<!DOCTYPE svg PUBLIC "-//W3C//DTD SVG 20010904//EN"
 "http://www.w3.org/TR/2001/REC-SVG-20010904/DTD/svg10.dtd">
<svg version="1.0" xmlns="http://www.w3.org/2000/svg"
 width="2118.000000pt" height="2118.000000pt" viewBox="0 0 2118.000000 2118.000000"
 preserveAspectRatio="xMidYMid meet">
<metadata>
Created by potrace 1.14, written by Peter Selinger 2001-2017
</metadata>
<g transform="translate(0.000000,2118.000000) scale(0.100000,-0.100000)"
fill="#000000" stroke="none">
<path d="M7009 20345 c-48 -8 -133 -25 -190 -39 -57 -14 -354 -82 -659 -151
-305 -70 -643 -146 -750 -171 -423 -97 -690 -157 -795 -180 -60 -14 -128 -29
-150 -34 -70 -17 -219 -52 -235 -55 -8 -2 -109 -25 -223 -51 l-208 -47 3
-1209 3 -1209 -625 629 c-431 434 -633 631 -651 634 -57 10 -123 -37 -185
-133 -24 -37 -44 -70 -44 -73 0 -4 -9 -25 -19 -49 -48 -103 -66 -269 -38 -336
8 -18 343 -364 788 -813 l774 -781 1 -256 c3 -390 14 -1371 19 -1596 3 -110 7
-285 10 -390 2 -104 7 -280 10 -390 11 -434 40 -1183 60 -1510 2 -44 7 -123
10 -175 10 -167 21 -334 35 -520 5 -74 12 -171 15 -215 3 -44 8 -91 10 -105 2
-14 7 -70 11 -125 3 -55 8 -107 9 -116 2 -8 6 -53 10 -100 3 -46 8 -95 10
-109 2 -14 7 -54 10 -90 11 -113 22 -211 41 -360 8 -58 14 -112 15 -120 0 -14
7 -72 24 -200 17 -131 80 -559 91 -614 2 -11 6 -34 9 -51 57 -346 153 -810
230 -1118 113 -450 230 -840 351 -1172 70 -190 86 -232 96 -255 14 -32 18 -43
67 -167 39 -97 119 -283 191 -438 41 -90 220 -448 250 -500 57 -100 80 -149
73 -156 -13 -12 -162 -85 -248 -122 -133 -57 -254 -91 -439 -126 -81 -15 -370
-7 -460 13 -109 24 -247 71 -331 113 -56 29 -573 309 -775 421 -25 13 -70 38
-100 55 -106 57 -186 101 -275 150 -126 69 -174 95 -305 167 -63 34 -137 75
-165 90 -27 15 -90 50 -140 77 -49 27 -126 69 -170 93 -44 24 -194 106 -332
182 -139 76 -256 138 -260 138 -3 0 -14 6 -22 13 -21 17 -130 61 -206 83 -91
25 -228 30 -316 10 -186 -41 -363 -201 -481 -431 -170 -335 -325 -638 -343
-670 -76 -143 -107 -352 -71 -488 31 -113 81 -195 203 -333 57 -63 83 -82 245
-174 433 -246 1019 -516 1453 -670 416 -147 805 -259 1245 -360 75 -17 388
-68 500 -82 116 -14 464 -17 577 -6 126 13 324 63 438 111 73 31 233 115 285
149 25 17 244 231 488 477 377 379 444 443 453 429 13 -23 240 -341 248 -348
3 -3 35 -43 71 -90 68 -90 114 -146 270 -330 115 -135 111 -131 220 -251 107
-120 566 -578 690 -690 52 -48 119 -108 149 -135 53 -49 77 -69 116 -102 11
-9 74 -62 140 -117 222 -186 603 -482 786 -611 168 -118 418 -290 514 -354
109 -73 681 -433 701 -441 5 -2 63 -36 129 -75 132 -78 136 -81 447 -255 l217
-121 53 30 c29 16 93 51 141 76 154 82 705 400 817 471 19 12 91 57 160 100
262 163 698 452 824 544 28 21 87 64 131 96 393 289 762 584 1020 816 17 15
40 36 52 47 161 138 560 538 743 742 47 52 87 97 90 100 12 11 208 241 266
311 33 41 124 160 202 264 78 105 145 195 150 200 4 6 18 24 30 42 l23 32 422
-426 c292 -294 443 -439 489 -469 37 -24 70 -44 73 -44 4 0 19 -8 33 -18 108
-73 369 -158 575 -187 108 -15 410 -22 487 -11 19 3 78 10 130 16 111 12 119
13 310 46 161 27 206 37 465 101 553 137 1101 327 1645 570 124 56 555 271
655 327 66 37 144 81 173 97 104 58 133 80 212 171 96 110 163 233 186 339 6
31 6 165 -1 204 -21 116 -47 179 -180 440 -318 623 -323 632 -441 750 -62 61
-78 72 -174 121 -150 75 -365 67 -563 -21 -32 -14 -223 -116 -425 -227 -452
-248 -474 -260 -542 -296 -55 -30 -597 -326 -825 -452 -123 -68 -596 -326
-655 -358 -36 -19 -79 -43 -95 -53 -44 -26 -190 -88 -260 -110 -327 -102 -686
-75 -1045 78 -102 44 -186 86 -204 103 -5 5 15 51 47 107 30 54 89 166 130
248 96 191 165 336 242 510 7 17 34 82 59 145 26 63 51 124 56 135 13 28 141
367 146 385 2 8 26 83 54 165 137 406 279 934 365 1360 3 11 16 76 30 145 14
69 28 141 31 160 3 19 9 51 14 70 5 19 11 51 14 70 3 19 17 105 31 190 34 203
33 195 44 270 19 118 56 388 66 470 3 30 8 66 10 80 5 34 19 160 29 255 3 28
10 88 15 135 6 47 13 114 16 150 3 36 8 81 10 100 2 19 7 69 10 110 3 41 8 91
10 110 2 19 7 73 10 120 3 47 7 101 10 120 2 19 7 76 10 125 3 50 8 113 10
140 2 28 7 93 10 145 3 52 7 115 10 140 2 25 7 101 10 170 4 69 8 150 10 180
3 30 7 118 10 195 3 77 7 160 9 185 3 25 7 131 11 235 3 105 8 228 10 275 3
47 7 166 10 265 12 391 15 507 20 685 7 286 20 979 30 1660 9 646 14 923 17
926 2 1 347 350 768 774 471 475 772 786 782 808 21 45 23 154 4 232 -31 126
-84 227 -156 301 -60 61 -97 75 -145 54 -16 -7 -303 -288 -637 -625 l-608
-614 5 255 c2 140 7 481 10 759 4 278 8 588 10 690 6 340 7 661 2 666 -2 2
-14 7 -26 9 -39 7 -844 185 -886 195 -22 6 -110 25 -195 44 -382 83 -539 118
-595 131 -45 11 -486 109 -585 130 -8 2 -222 49 -475 105 -253 56 -482 106
-510 112 -27 5 -115 11 -195 13 -266 7 -433 -43 -643 -192 -84 -60 -270 -238
-394 -378 l-71 -79 -228 1 c-497 4 -3005 1 -3259 -3 -148 -2 -277 -4 -285 -4
-8 0 -42 0 -75 1 -33 0 -64 0 -70 -1 -5 -1 -136 -2 -290 -1 l-280 1 -110 132
c-201 242 -282 316 -435 400 -66 36 -183 77 -285 100 -116 26 -389 33 -516 13z"/>
</g>
</svg>
