<?xml version="1.0" standalone="no"?>
<!DOCTYPE svg PUBLIC "-//W3C//DTD SVG 20010904//EN"
 "http://www.w3.org/TR/2001/REC-SVG-20010904/DTD/svg10.dtd">
<svg version="1.0" xmlns="http://www.w3.org/2000/svg"
 width="2120.000000pt" height="2120.000000pt" viewBox="0 0 2120.000000 2120.000000"
 preserveAspectRatio="xMidYMid meet">
<metadata>
Created by potrace 1.14, written by Peter Selinger 2001-2017
</metadata>
<g transform="translate(0.000000,2120.000000) scale(0.100000,-0.100000)"
fill="#000000" stroke="none">
<path d="M7010 20353 c-36 -6 -76 -14 -90 -17 -22 -4 -342 -77 -530 -121 -36
-8 -123 -28 -195 -44 -120 -27 -392 -89 -925 -211 -118 -27 -287 -66 -375 -86
-88 -20 -248 -56 -355 -81 -107 -24 -222 -50 -255 -57 -33 -8 -154 -35 -268
-62 l-208 -47 3 -1199 c2 -659 1 -1198 -1 -1198 -2 0 -282 280 -622 623 l-619
622 -48 0 c-38 0 -57 -6 -85 -28 -143 -109 -250 -435 -188 -573 18 -39 162
-187 1152 -1181 l416 -418 1 -360 c0 -338 10 -1115 17 -1450 15 -651 22 -933
30 -1155 21 -591 25 -692 50 -1150 2 -41 6 -129 10 -195 3 -66 8 -140 10 -165
2 -25 7 -90 11 -145 3 -55 7 -120 9 -145 2 -25 6 -85 10 -135 3 -49 8 -106 10
-125 3 -19 7 -75 11 -125 3 -49 8 -108 10 -130 2 -22 6 -67 9 -100 9 -105 35
-369 40 -395 2 -14 7 -54 10 -90 9 -100 22 -204 55 -460 32 -240 24 -187 95
-640 23 -152 94 -528 134 -720 183 -866 445 -1689 756 -2375 72 -159 288 -598
304 -620 5 -5 25 -40 45 -78 33 -61 35 -68 19 -74 -10 -4 -38 -18 -63 -33
-157 -90 -364 -163 -590 -207 -67 -13 -305 -18 -380 -8 -209 28 -338 75 -595
216 -66 36 -151 83 -190 104 -80 43 -164 89 -215 118 -19 11 -66 36 -105 57
-120 64 -189 102 -220 120 -16 10 -66 37 -110 61 -44 23 -98 53 -120 66 -22
12 -47 26 -55 30 -8 3 -49 25 -90 48 -41 23 -104 58 -140 77 -36 20 -85 47
-110 60 -25 14 -74 41 -110 60 -143 78 -604 330 -745 408 -273 152 -374 188
-535 195 -118 4 -202 -13 -295 -60 -149 -75 -258 -203 -385 -450 -326 -633
-361 -706 -374 -771 -3 -10 -9 -38 -14 -62 -14 -62 -13 -203 4 -264 22 -85 78
-186 152 -278 105 -129 115 -136 365 -273 37 -21 84 -47 105 -59 196 -111 690
-341 987 -460 527 -211 1232 -423 1660 -498 33 -5 69 -12 80 -14 11 -2 56 -9
100 -16 44 -7 87 -13 95 -15 8 -1 44 -6 80 -10 36 -3 79 -9 95 -11 74 -11 426
-10 515 2 156 21 297 53 386 90 22 8 52 21 69 27 60 24 217 108 273 146 31 22
252 236 491 477 l434 437 28 -34 c16 -19 29 -38 29 -42 0 -5 13 -25 28 -45 16
-20 89 -118 162 -216 73 -99 140 -186 149 -195 9 -9 32 -37 51 -61 19 -25 62
-77 95 -116 166 -196 157 -185 272 -313 126 -140 596 -607 758 -752 179 -161
406 -352 608 -512 149 -119 481 -369 546 -413 20 -13 74 -51 121 -84 115 -82
533 -361 650 -434 52 -32 111 -69 130 -81 99 -63 167 -105 290 -178 177 -105
168 -99 370 -214 181 -103 212 -121 343 -192 l77 -43 54 30 c29 17 93 52 142
78 49 26 106 58 126 71 21 12 40 23 42 23 5 0 349 198 501 288 206 122 684
425 849 537 366 250 707 503 1041 773 66 54 354 299 365 311 3 3 28 26 55 50
161 143 547 521 670 656 202 222 209 230 349 395 137 163 324 403 431 556 22
31 47 65 55 76 14 18 33 1 360 -327 509 -511 509 -511 587 -559 191 -119 422
-205 623 -233 19 -2 62 -8 95 -13 75 -10 379 -10 465 0 36 5 90 11 120 14 100
12 127 16 275 41 166 28 418 85 640 145 83 22 157 42 165 45 46 11 277 84 415
130 406 135 772 285 1180 486 418 205 650 337 721 411 67 69 154 179 154 194
0 7 3 14 8 16 11 5 51 98 66 153 32 126 5 346 -59 464 -7 14 -16 33 -19 41 -3
8 -32 65 -64 125 -32 61 -115 222 -186 360 -145 282 -184 345 -271 430 -78 78
-104 97 -195 140 -42 20 -65 28 -130 43 -44 9 -214 5 -260 -8 -25 -7 -52 -13
-60 -15 -56 -11 -182 -69 -295 -135 -16 -10 -64 -35 -105 -57 -41 -22 -96 -52
-122 -67 -27 -14 -69 -38 -95 -52 -27 -14 -52 -30 -57 -35 -6 -5 -18 -9 -27
-9 -10 0 -19 -4 -21 -8 -1 -4 -43 -30 -93 -57 -115 -61 -209 -113 -260 -141
-22 -13 -62 -35 -90 -50 -27 -14 -72 -39 -100 -54 -193 -106 -232 -127 -245
-133 -8 -4 -33 -18 -55 -30 -35 -20 -279 -154 -435 -239 -152 -83 -298 -164
-325 -179 -16 -10 -52 -29 -80 -44 -27 -14 -86 -45 -130 -70 -116 -65 -271
-140 -340 -163 -245 -84 -489 -99 -740 -45 -38 8 -78 16 -87 18 -87 19 -414
152 -455 186 -10 9 -4 26 28 83 119 212 344 682 443 926 26 63 51 124 56 135
13 28 72 184 105 275 14 41 31 86 36 99 32 77 163 492 215 681 91 325 202 791
250 1050 3 14 16 85 30 159 13 73 26 143 29 155 2 11 7 37 10 56 2 19 9 62 15
95 6 33 13 76 16 95 2 19 16 107 29 195 13 88 27 176 29 195 8 52 54 417 60
475 3 28 10 91 16 140 12 109 18 163 25 235 3 30 7 75 10 100 12 123 23 247
30 340 3 41 8 95 10 120 3 25 7 79 10 120 3 41 7 104 10 140 11 142 15 209 20
305 3 55 8 123 10 150 3 28 7 111 10 186 3 74 7 155 10 180 2 24 7 119 10 210
4 92 8 193 10 225 2 33 6 147 9 254 4 107 9 236 11 285 2 50 7 200 10 335 3
135 7 308 10 385 2 77 7 284 10 460 3 176 8 401 10 500 2 99 7 385 10 635 3
250 8 565 11 700 l4 245 285 285 c775 777 1258 1268 1272 1295 22 40 26 174 8
244 -36 136 -94 248 -162 312 -49 47 -73 59 -120 59 -37 0 -54 -15 -651 -615
-338 -338 -616 -615 -618 -615 -2 0 -2 102 0 228 3 125 8 463 12 752 3 289 7
593 9 675 5 274 7 686 3 690 -3 4 -389 91 -683 154 -49 11 -234 52 -410 91
-176 39 -328 73 -339 75 -23 5 -962 213 -1181 262 -646 144 -699 154 -825 160
-410 20 -649 -108 -1062 -567 l-77 -85 -343 2 c-387 3 -1408 4 -1423 2 -5 -1
-14 -1 -19 0 -23 5 -799 3 -1709 -4 -959 -7 -989 -7 -1005 11 -10 11 -73 85
-141 166 -67 81 -152 175 -188 208 -150 138 -359 229 -598 260 -106 14 -323
10 -415 -7z"/>
</g>
</svg>
